<?xml version="1.0" encoding="utf-8"?>
<!-- Generator: Adobe Illustrator 16.2.0, SVG Export Plug-In . SVG Version: 6.00 Build 0)  -->
<!DOCTYPE svg PUBLIC "-//W3C//DTD SVG 1.1//EN" "http://www.w3.org/Graphics/SVG/1.1/DTD/svg11.dtd">
<svg version="1.1" id="Слой_1" xmlns="http://www.w3.org/2000/svg" xmlns:xlink="http://www.w3.org/1999/xlink" x="0px" y="0px"
	 width="40px" height="36px" viewBox="0 0 40 36" enable-background="new 0 0 40 36" xml:space="preserve">
<g>
	<path fill="#FFFFFF" stroke="#000000" stroke-miterlimit="10" d="M7.479,6.607c-0.566,5.098-6.916,4.083-6.916,9.25
		c0,4.083,4.583,4.667,3.598,9.417c-0.884,4.264,0.652,7.583,6.072,7.361c3.506-0.143,6.465,0.295,8.914,1.556
		c3.637,1.871,7.493,1.385,9.993-0.866s1.758-4.218,6.008-6.468c4.25-2.25,4.832-6.5,2.75-10.167
		c-1.716-3.02-3.884-4.551-4.583-8.75c-0.834-5-5.166-6.457-8.916-5c-3.794,1.474-5.311-0.545-8.501-1.86
		C12.768-0.21,8.063,1.368,7.479,6.607z"/>
	<path fill="#FFFFFF" stroke="#000000" stroke-width="0.75" stroke-miterlimit="10" d="M10.588,21.69
		c2.761,1.561,0.592,4.303,3.529,5.557c2.322,0.992,4.146-1.111,6.607,0.602c2.209,1.537,4.43,0.928,5.782-0.602
		c1.131-1.277,0.311-3.298,2.027-4.881c1.861-1.714,2.699-3.063,2.027-5.03s-2.906-2.669-3.154-5.631
		c-0.246-2.963-3.229-3-4.43-2.478c-1.969,0.855-3.774,0.713-6.144-0.432c-1.938-0.937-4.19,0.543-4.271,3.03
		c-0.083,2.515-0.677,2.516-2.199,4.01C8.869,17.3,7.75,20.087,10.588,21.69z"/>
	<circle stroke="#FFFFFF" stroke-width="0.25" stroke-miterlimit="10" cx="19.813" cy="17.999" r="4"/>
	<g>
		<path d="M16.95,12.289c0.075,0.05,0.069,0.226,0,0.28c-0.261,0.205-1.32,0.167-1.64,0c-0.083-0.044-0.076-0.23,0-0.28
			C15.602,12.101,16.663,12.1,16.95,12.289z"/>
	</g>
	<g>
		<path d="M13.263,18.207c0.075,0.05,0.069,0.226,0,0.28c-0.261,0.204-1.32,0.166-1.64,0c-0.083-0.045-0.076-0.23,0-0.28
			C11.914,18.019,12.976,18.018,13.263,18.207z"/>
	</g>
	<g>
		<path d="M25.336,25.036c0.074,0.05,0.068,0.226,0,0.279c-0.262,0.205-1.32,0.167-1.641,0c-0.082-0.044-0.076-0.23,0-0.279
			C23.987,24.849,25.049,24.847,25.336,25.036z"/>
	</g>
	<g>
		<path d="M25.512,11.133c0.074,0.05,0.068,0.226,0,0.28c-0.26,0.205-1.32,0.167-1.639,0c-0.084-0.044-0.076-0.23,0-0.28
			C24.163,10.945,25.225,10.943,25.512,11.133z"/>
	</g>
	<g>
		<path d="M18.981,22.758c0.075,0.05,0.069,0.226,0,0.28c-0.261,0.204-1.32,0.166-1.64,0c-0.083-0.045-0.076-0.23,0-0.28
			C17.633,22.569,18.694,22.568,18.981,22.758z"/>
	</g>
	<g>
		<path d="M26.698,17.86c0.074,0.05,0.068,0.226,0,0.28c-0.26,0.205-1.32,0.167-1.639,0c-0.084-0.044-0.076-0.23,0-0.28
			C25.348,17.672,26.411,17.671,26.698,17.86z"/>
	</g>
</g>
</svg>
