<?xml version="1.0" encoding="utf-8"?>
<!-- Generator: Adobe Illustrator 16.2.0, SVG Export Plug-In . SVG Version: 6.00 Build 0)  -->
<!DOCTYPE svg PUBLIC "-//W3C//DTD SVG 1.1//EN" "http://www.w3.org/Graphics/SVG/1.1/DTD/svg11.dtd">
<svg version="1.1" id="Слой_1" xmlns="http://www.w3.org/2000/svg" xmlns:xlink="http://www.w3.org/1999/xlink" x="0px" y="0px"
	 width="73px" height="66px" viewBox="0 0 73 66" enable-background="new 0 0 73 66" xml:space="preserve">
<g>
	<path fill="#FFFFFF" stroke="#000000" stroke-miterlimit="10" d="M13.742,11.979C12.697,21.387,0.98,19.515,0.98,29.048
		c0,7.537,8.457,8.613,6.639,17.375c-1.631,7.871,1.204,13.994,11.205,13.588c6.469-0.266,11.929,0.545,16.448,2.867
		c6.711,3.451,13.822,2.557,18.436-1.596c4.613-4.15,3.244-7.783,11.086-11.936s8.916-11.994,5.074-18.762
		c-3.166-5.573-7.166-8.397-8.459-16.146c-1.537-9.226-9.531-11.915-16.451-9.226c-6.999,2.72-9.798-1.005-15.685-3.433
		C23.502-0.6,14.82,2.311,13.742,11.979z"/>
	<path fill="#FFFFFF" stroke="#000000" stroke-width="0.75" stroke-miterlimit="10" d="M19.479,39.813
		c5.095,2.879,1.093,7.938,6.513,10.254c4.285,1.828,7.649-2.055,12.19,1.105c4.076,2.842,8.174,1.715,10.668-1.105
		c2.086-2.361,0.574-6.088,3.74-9.006c3.436-3.164,4.982-5.654,3.742-9.286c-1.24-3.631-5.361-4.924-5.82-10.391
		c-0.455-5.468-5.957-5.535-8.174-4.572c-3.633,1.578-6.962,1.316-11.335-0.797c-3.575-1.729-7.732,1.002-7.882,5.59
		c-0.153,4.641-1.249,4.643-4.059,7.398C16.309,31.709,14.243,36.854,19.479,39.813z"/>
	<circle stroke="#FFFFFF" stroke-width="0.25" stroke-miterlimit="10" cx="36.5" cy="33" r="7.38"/>
</g>
</svg>
