<?xml version="1.0" encoding="utf-8"?>
<!-- Generator: Adobe Illustrator 16.2.0, SVG Export Plug-In . SVG Version: 6.00 Build 0)  -->
<!DOCTYPE svg PUBLIC "-//W3C//DTD SVG 1.1//EN" "http://www.w3.org/Graphics/SVG/1.1/DTD/svg11.dtd">
<svg version="1.1" id="Слой_1" xmlns="http://www.w3.org/2000/svg" xmlns:xlink="http://www.w3.org/1999/xlink" x="0px" y="0px"
	 width="73px" height="66px" viewBox="0 0 73 66" enable-background="new 0 0 73 66" xml:space="preserve">
<path fill="#FFFFFF" stroke="#000000" stroke-miterlimit="10" d="M13.772,12.205C12.726,21.612,1.009,19.74,1.009,29.273
	c0,7.535,8.458,8.611,6.64,17.374c-1.631,7.87,1.202,13.994,11.204,13.587c6.469-0.265,11.929,0.545,16.448,2.867
	c6.714,3.452,13.825,2.557,18.438-1.595c4.612-4.151,3.243-7.784,11.085-11.937c7.843-4.151,8.918-11.994,5.075-18.76
	c-3.166-5.573-7.166-8.397-8.458-16.146C59.903,5.439,51.908,2.75,44.988,5.439c-6.999,2.72-9.799-1.005-15.686-3.433
	C23.531-0.374,14.848,2.537,13.772,12.205z"/>
<path fill="#FFFFFF" stroke="#000000" stroke-width="0.75" stroke-miterlimit="10" d="M19.509,40.038
	c5.094,2.878,1.091,7.938,6.512,10.253c4.284,1.828,7.649-2.054,12.191,1.106c4.077,2.841,8.176,1.714,10.669-1.106
	c2.086-2.36,0.574-6.086,3.742-9.006c3.432-3.164,4.98-5.652,3.74-9.284c-1.242-3.631-5.361-4.925-5.819-10.391
	c-0.457-5.468-5.958-5.535-8.175-4.572c-3.635,1.579-6.965,1.316-11.337-0.797c-3.575-1.728-7.731,1.003-7.882,5.59
	c-0.153,4.64-1.249,4.643-4.058,7.399C16.338,31.935,14.271,37.08,19.509,40.038z"/>
<g>
	<path d="M37.18,27.338c0.819,1.011,0.061,3.359,0.981,4.278c0.885,0.885,3.106,0.194,4.079,0.98c0.258,0.209,0.258,1.005,0,1.212
		c-0.973,0.786-3.194,0.098-4.079,0.98c-0.927,0.928-0.155,3.303-0.981,4.323c-0.222,0.275-1.078,0.275-1.301,0
		c-0.823-1.021-0.052-3.396-0.98-4.323c-0.883-0.883-3.107-0.194-4.08-0.98c-0.258-0.207-0.258-1.003,0-1.212
		c0.973-0.786,3.196-0.095,4.08-0.98c0.919-0.919,0.164-3.267,0.98-4.278C36.103,27.063,36.958,27.063,37.18,27.338z"/>
</g>
</svg>
